<svg xmlns="http://www.w3.org/2000/svg" width="24" height="24" fill="none"><path fill="#035A4B" d="M21 10.72H3c-.6 0-1 .4-1 1s.4 1 1 1h3v2c0 3.3 2.7 6 6 6s6-2.7 6-6v-2h3c.6 0 1-.4 1-1s-.4-1-1-1Z" opacity=".3"/><path fill="#035A4B" d="M11.6 21.92c-.2 0-.4-.1-.6-.2-.4-.3-.5-1-.2-1.4.9-1.2 1.5-2.5 1.9-4 .1-.5.7-.9 1.2-.7.5.1.9.7.7 1.2-.4 1.7-1.2 3.3-2.2 4.7-.2.2-.5.4-.8.4Zm-2.9-2.2c1.5-1.6 2.3-3.8 2.3-6v-5c0-.6.4-1 1-1s1 .4 1 1v4.3c0 .6.4 1 1 1s1-.4 1-1v-4.3c0-1.7-1.3-3-3-3s-3 1.3-3 3v5c0 1.7-.6 3.4-1.8 4.6-.4.4-.3 1 .1 1.4.2.2.4.3.7.3.3 0 .5-.1.7-.3Zm-2.7-3c.5 0 1-.5 1-1v-7c0-.6.1-1.2.3-1.8.2-.5-.1-1.1-.6-1.3-.5-.2-1.1.1-1.3.6-.3.8-.4 1.6-.4 2.5v7.1c0 .5.5.9 1 .9Zm3-12c.5-.4 1.1-.6 1.7-.8.5-.1.8-.7.7-1.2-.1-.5-.7-.8-1.2-.7-.8.2-1.6.6-2.3 1.1-.4.3-.5 1-.2 1.4.2.3.5.4.8.4.1 0 .3-.1.5-.2Zm9.2 14.2c.5-1.7.8-3.4.8-5.2v-5c0-3-1.9-5.6-4.7-6.6-.5-.2-1.1.1-1.3.6-.2.5.1 1.1.6 1.3 2 .7 3.4 2.6 3.4 4.7v5c0 1.6-.2 3.1-.7 4.6-.2.5.1 1.1.6 1.3h.3c.5 0 .8-.3 1-.7Z"/></svg>