<svg xmlns="http://www.w3.org/2000/svg" width="24" height="24" fill="none"><path fill="#035A4B" d="M13.002 10.913v-7.9c0-.6.5-1.1 1.1-1 2 .2 3.8 1.1 5.2 2.6 1.4 1.4 2.3 3.3 2.6 5.2.1.6-.4 1.1-1 1.1h-7.9Z"/><path fill="#035A4B" d="M11.002 13.713v-8.8c0-.6-.5-1.1-1.1-1-4.5.6-8 4.5-7.9 9.2.1 4.9 4.4 8.9 9.3 8.8 1.8-.1 3.4-.6 4.7-1.5.5-.3.6-1.1.1-1.5l-5.1-5.2Z" opacity=".3"/><path fill="#035A4B" d="M21.902 14.013c-.2 1.6-.8 3.1-1.8 4.4-.4.5-1.1.5-1.5.1l-5.6-5.6h7.9c.6 0 1.1.5 1 1.1Z" opacity=".3"/></svg>